<?xml version="1.0" encoding="UTF-8"?><svg id="Layer_2" xmlns="http://www.w3.org/2000/svg" viewBox="0 0 2834.65 2286.48"><defs><style>.cls-1{fill:#fff;}</style></defs><g id="Layer_1-2"><path class="cls-1" d="m812.55,1487.33c-3.12-29.05-6.15-71.81-9.19-128.41v-346.07c0-56.52-10.64-100.82-31.84-132.93-33.3-48.91-94.7-84.81-184.13-107.71h-2.79l2.79-.91c89.43-22.94,150.83-58.84,184.13-107.75,21.2-32.09,31.84-76.38,31.84-132.93v-191.58c3.04-56.59,6.07-99.36,9.19-128.4,10.6-90.15,28.18-144.42,52.61-162.73h-350.17c-19.86,22.92-33.57,56.85-41.18,101.86-7.68,44.99-11.47,108.71-11.47,191.12v239.19c0,39.69-9.93,63.69-29.83,72.12-19.9,8.32-47.34,12.57-82.29,12.57V47.91H0v1602.15h350.21v-771.36c34.96,0,62.39,4.26,82.29,12.61,19.9,8.43,29.83,32.43,29.83,72.12v393.64c0,82.41,3.79,146.1,11.47,191.11,7.61,45.05,21.32,78.94,41.18,101.88h350.17c-24.43-18.33-42.01-72.6-52.61-162.73Z"/><path class="cls-1" d="m1798.4,1395.5c0,96.87-38.54,171.44-115.51,223.89-77.01,52.34-177.43,78.54-301.22,78.54s-224.7-25.38-302.47-76.18c-77.84-50.8-116.69-125.41-116.69-223.9V323.86c0-106.33,30.15-184.94,90.49-235.76C1121.26,29.4,1231.61,0,1384.03,0c139.67,0,243.68,27.78,311.98,83.35,68.22,55.57,102.39,134.96,102.39,238.14v1074.01Zm-354.86,21.24V276.45c0-17.54-4.93-30.31-14.82-38.27-9.89-7.96-25.62-11.94-47.05-11.94s-37.52,3.98-48.24,11.94c-10.72,7.96-16.08,20.73-16.08,38.27v1140.29c0,15.96,5.36,28.3,16.08,37.08,10.72,8.75,26.8,13.12,48.24,13.12s37.17-4.37,47.05-13.12c9.89-8.79,14.82-21.12,14.82-37.08Z"/><path class="cls-1" d="m2834.65,1650.06h-350.21c-19.82-22.94-33.54-56.83-41.19-101.88-7.65-45.01-11.43-108.7-11.43-191.11v-393.64c0-39.69-9.93-63.69-29.83-72.12-19.9-8.36-47.34-12.61-82.33-12.61v771.36h-350.17V47.91h434.87c115.95,0,206.36,25.83,271.23,77.46,64.83,51.65,97.27,119.95,97.27,204.96v191.3c0,53.17-8.36,94.19-24.99,123-30.34,53.2-93.99,95.69-190.98,127.57,89.43,22.9,150.83,58.8,184.13,107.71,21.2,32.12,31.84,76.42,31.84,132.93v346.07c3.03,56.59,6.11,99.35,9.14,128.41,10.68,90.13,28.22,144.4,52.65,162.73Zm-402.82-1052.36v-261.85c0-39.45-9.93-63.33-29.83-71.73-19.9-8.32-47.34-12.49-82.33-12.49v430.29c36.61,0,60.46-2.29,71.61-6.86,27.04-12.1,40.55-37.91,40.55-77.36Z"/><path class="cls-1" d="m2258.06,1650.06h-350.21c24.48-18.33,42.01-72.6,52.65-162.73,3.07-29.05,6.11-71.81,9.18-128.41V339.04c-3.07-56.59-5.91-99.4-9.18-128.4-10.13-90.23-28.18-144.42-52.65-162.73h165.21"/><path class="cls-1" d="m349.43,1963.35c-32.2-33.28-76.76-53.68-123.45-53.68-90.17,0-163.17,78.37-163.17,167.47s73.54,167.47,164.25,167.47c45.62,0,90.18-21.47,122.38-53.68v55.82c-34.89,25.23-77.83,39.72-120.77,39.72-114.33,0-210.95-92.86-210.95-207.72s95.01-210.95,210.95-210.95c45.09,0,84.81,12.88,120.77,39.72v55.82Z"/><path class="cls-1" d="m524.4,2279.5h-45.09v-404.71h58.51c76.76,0,148.14,20.4,148.14,111.64,0,62.26-39.18,106.28-101.45,111.64l128.82,181.42h-55.29l-122.38-177.67h-11.27v177.67Zm0-217.39h13.96c50.99,0,102.52-9.66,102.52-72.46,0-66.56-48.85-73-103.06-73h-13.42v145.46Z"/><path class="cls-1" d="m1225.39,2077.68c0,116.47-95.54,208.8-210.94,208.8s-210.94-92.32-210.94-208.8,95.54-209.87,210.94-209.87,210.94,93.93,210.94,209.87Zm-376.8-.54c0,91.25,74.07,167.47,165.86,167.47s165.86-76.22,165.86-167.47-73-167.47-165.86-167.47-165.86,75.68-165.86,167.47Z"/><path class="cls-1" d="m1523.82,1953.69c-16.1-27.91-35.42-44.01-69.78-44.01s-67.09,25.76-67.09,62.8c0,34.89,35.96,50.99,63.34,63.34l26.84,11.81c52.6,23.08,97.15,49.38,97.15,113.79,0,70.85-56.9,125.06-127.21,125.06-64.95,0-113.25-41.87-126.13-104.67l44.01-12.35c5.91,41.33,37.57,75.15,81.05,75.15s83.2-33.28,83.2-78.9-37.04-63.34-74.61-80.52l-24.69-10.73c-47.24-21.47-88.03-45.62-88.03-103.59,0-62.8,53.14-103.06,113.25-103.06,45.09,0,83.2,23.08,104.67,62.8l-35.96,23.08Z"/><path class="cls-1" d="m1877.53,1953.69c-16.1-27.91-35.42-44.01-69.78-44.01s-67.09,25.76-67.09,62.8c0,34.89,35.96,50.99,63.34,63.34l26.84,11.81c52.6,23.08,97.15,49.38,97.15,113.79,0,70.85-56.9,125.06-127.21,125.06-64.95,0-113.25-41.87-126.14-104.67l44.01-12.35c5.91,41.33,37.57,75.15,81.05,75.15s83.2-33.28,83.2-78.9-37.04-63.34-74.61-80.52l-24.69-10.73c-47.23-21.47-88.03-45.62-88.03-103.59,0-62.8,53.14-103.06,113.25-103.06,45.09,0,83.2,23.08,104.67,62.8l-35.96,23.08Z"/><path class="cls-1" d="m2092.76,1916.66v120.23h134.72v41.87h-134.72v200.75h-45.09v-404.71h184.11v41.87h-139.02Z"/><path class="cls-1" d="m2404.07,2279.5h-45.09v-404.71h45.09v404.71Z"/><path class="cls-1" d="m2647.22,2279.5h-45.09v-362.85h-97.69v-41.87h241.54v41.87h-98.76v362.85Z"/></g></svg>